<svg width="29" height="23" viewBox="0 0 29 23" fill="none" xmlns="http://www.w3.org/2000/svg">
<g clip-path="url(#clip0_72_824)">
<path d="M29 6.88931C28.9471 6.88003 28.9454 6.92098 28.9312 6.95211C28.7844 7.27154 28.5295 7.45883 28.1666 7.46429C27.7911 7.46975 27.5339 7.27645 27.3616 6.9603C26.7255 5.79233 25.9473 4.71774 25.037 3.7316C24.2775 2.90928 23.4441 2.1634 22.527 1.50543C22.2425 1.30121 22.0685 1.04458 22.1219 0.695115C22.2204 0.0513422 22.9406 -0.210754 23.5032 0.191127C24.4829 0.890049 25.3778 1.67961 26.193 2.55108C27.2307 3.65953 28.1171 4.87063 28.8419 6.18984C28.8908 6.27939 28.9027 6.39133 29 6.45467C29 6.59937 29 6.74461 29 6.88931Z" fill="white"/>
<path d="M11.8926 6.68072C13.9748 6.6627 15.8026 7.32831 17.3865 8.60712C18.8298 9.7729 19.7662 11.251 20.1741 13.0196C20.2395 13.3041 20.3749 13.2735 20.5775 13.2457C21.9372 13.0584 23.1922 13.3369 24.2833 14.1308C26.0435 15.4118 26.7063 17.1285 26.266 19.2007C25.8694 21.0665 24.206 22.5637 22.2188 22.9148C21.9884 22.9558 21.7511 22.9809 21.5173 22.9809C18.3559 22.9853 15.1951 22.9836 12.0336 22.9836C11.9864 22.9836 11.9398 22.9782 11.8926 22.9749C11.892 22.17 11.8937 21.3652 11.8908 20.5598C11.888 19.7282 11.8806 18.896 11.8755 18.0644C12.8443 17.5118 13.8149 16.962 14.7815 16.4056C15.4846 16.001 15.4789 15.284 14.7718 14.8789C13.812 14.3285 12.8495 13.7819 11.8886 13.2342C11.8891 11.0501 11.8908 8.86539 11.8926 6.68072Z" fill="#CA0010"/>
<path d="M11.8747 18.065C11.8799 18.8966 11.8873 19.7287 11.8901 20.5603C11.8929 21.3652 11.8912 22.17 11.8918 22.9754C9.51378 22.976 7.13347 23.0399 4.75829 22.9612C1.86142 22.8657 -0.343663 20.2709 0.0437619 17.5064C0.314561 15.5729 1.42905 14.2465 3.31042 13.5154C3.45834 13.4581 3.53173 13.386 3.56302 13.2331C4.24229 9.88429 7.07772 7.28244 10.5964 6.77245C11.0259 6.7102 11.456 6.65997 11.8918 6.68072C11.8901 8.86539 11.8884 11.0495 11.8873 13.2342C11.4725 13.0027 11.0584 12.769 10.6419 12.5402C9.94558 12.158 9.28678 12.526 9.28621 13.2992C9.28451 14.857 9.28451 16.4143 9.28621 17.9721C9.28678 18.7753 9.94899 19.1357 10.6778 18.7311C11.0771 18.5094 11.4759 18.2872 11.8747 18.065Z" fill="#ED3616"/>
<path d="M21.4694 2.98737C21.6509 3.00321 21.8375 3.07419 22.0042 3.20578C23.4606 4.35627 24.6558 5.71863 25.5923 7.28956C25.8534 7.72748 25.7373 8.21782 25.3226 8.44879C24.9119 8.67758 24.4141 8.55254 24.1569 8.1239C23.307 6.70476 22.226 5.47564 20.9141 4.43054C20.6001 4.18045 20.5153 3.83973 20.6473 3.50392C20.7679 3.19759 21.0962 2.983 21.4694 2.98737Z" fill="white"/>
<path d="M22.4554 8.77583C22.4634 9.1515 22.2358 9.47749 21.9224 9.59051C21.5861 9.71228 21.1799 9.63638 20.978 9.3519C20.4665 8.63113 19.8914 7.96661 19.2502 7.3485C18.9458 7.05474 18.9783 6.58788 19.2656 6.28701C19.558 5.98069 20.0592 5.91735 20.3903 6.19747C21.172 6.8598 21.8273 7.62971 22.3655 8.48807C22.4258 8.58472 22.4361 8.71031 22.4554 8.77583Z" fill="white"/>
<path d="M11.8748 18.065C11.476 18.2872 11.0772 18.51 10.6778 18.7317C9.94958 19.1363 9.28737 18.7759 9.28623 17.9727C9.2851 16.4149 9.28453 14.8576 9.28623 13.2997C9.28737 12.5266 9.94616 12.1585 10.6419 12.5407C11.0584 12.7695 11.4725 13.0032 11.8873 13.2348C12.8487 13.783 13.8107 14.3296 14.7705 14.8794C15.4776 15.2846 15.4833 16.0015 14.7802 16.4061C13.8142 16.9625 12.8436 17.5124 11.8748 18.065Z" fill="#FEFEFE"/>
</g>
<defs>
<clipPath id="clip0_72_824">
<rect width="29" height="23" fill="white"/>
</clipPath>
</defs>
</svg>
