<svg width="34" height="32" viewBox="0 0 34 32" fill="none" xmlns="http://www.w3.org/2000/svg">
<path fill-rule="evenodd" clip-rule="evenodd" d="M16.9717 0C24.7917 0 25.245 0.0142857 25.755 0.271429C26.0383 0.414286 26.3783 0.657143 26.5058 0.8C26.6333 0.957143 26.8458 1.28571 26.9733 1.54286C27.1008 1.78571 27.2 2.31429 27.2 3.42857H29.6083C31.6908 3.42857 32.0875 3.47143 32.555 3.7C32.8383 3.84286 33.1783 4.08571 33.3058 4.22857C33.4333 4.38571 33.6458 4.71429 33.7733 4.97143C33.9717 5.38571 34 6.54286 34 26.6429L33.6458 27.2571C33.4333 27.6 33.0367 28 32.6967 28.2143C32.1158 28.5571 31.9883 28.5714 27.2 28.5714V29.3286C27.2 29.8571 27.0867 30.2429 26.8458 30.6857C26.6333 31.0286 26.2367 31.4286 25.2875 32H17.0283C9.2225 32 8.755 31.9857 8.245 31.7286C7.96167 31.5857 7.62167 31.3429 7.49417 31.2C7.36667 31.0429 7.15417 30.7143 7.02667 30.4714C6.89917 30.2143 6.8 29.6857 6.8 28.5714H4.39167C2.30917 28.5714 1.9125 28.5286 1.445 28.3C1.16167 28.1571 0.821667 27.9143 0.694167 27.7714C0.566667 27.6143 0.354167 27.2857 0.226667 27.0429C0.0283333 26.6143 0 25.4571 0 16C0 5.91429 0.0141667 5.4 0.269167 4.9C0.410833 4.6 0.651667 4.25714 0.793333 4.12857C0.949167 4 1.275 3.78571 1.51583 3.65714C1.89833 3.47143 2.45083 3.42857 6.8 3.42857V2.71429C6.8 2.3 6.91333 1.77143 7.06917 1.47143C7.21083 1.17143 7.45167 0.828571 7.59333 0.7C7.74917 0.571429 8.04667 0.357143 8.2875 0.242857C8.65583 0.0428572 9.71833 0.0142857 16.9717 0V0ZM9.0525 16.0143C9.06667 27.6143 9.095 29.3143 9.27917 29.5C9.46333 29.6857 10.5117 29.7143 16.9858 29.7143C23.46 29.7143 24.5225 29.6857 24.7067 29.5C24.905 29.3143 24.9333 27.8857 24.9333 16C24.9333 4.38571 24.905 2.68571 24.7208 2.5C24.5367 2.31429 23.4883 2.28571 17.0142 2.28571C10.3842 2.28571 9.49167 2.31429 9.27917 2.51429C9.06667 2.71429 9.0525 3.87143 9.0525 16.0143ZM2.2525 16.0143C2.26667 24.5571 2.295 25.8857 2.47917 26.0714C2.64917 26.2429 3.1025 26.2857 4.74583 26.2857H6.8V5.71429C3.08833 5.71429 2.66333 5.75714 2.47917 5.94286C2.26667 6.14286 2.2525 7.05714 2.2525 16.0143ZM27.2 26.2857C30.8692 26.2857 31.3367 26.2429 31.5067 26.0714C31.705 25.8857 31.7333 24.7714 31.7333 16C31.7333 7.42857 31.705 6.11429 31.5208 5.92857C31.3508 5.75714 30.8975 5.71429 29.2542 5.71429H27.2V26.2857Z" fill="#00001A"/>
</svg>
