<svg width="47" height="27" viewBox="0 0 47 27" fill="none" xmlns="http://www.w3.org/2000/svg">
<path d="M29.6188 22.6809H6.38115C2.85694 22.6809 0 18.6715 0 13.7257C0 8.77994 2.85694 4.77059 6.38115 4.77059H29.6188C33.1431 4.77059 36 8.77994 36 13.7257C36 18.6715 33.1431 22.6809 29.6188 22.6809Z" fill="white"/>
<path d="M32.5 1C39.9558 1 46 6.6975 46 13.7257C46 20.754 39.9558 26.4515 32.5 26.4515C25.0442 26.4515 19 20.754 19 13.7257C19 6.6975 25.0442 1 32.5 1Z" fill="white" stroke="#58595B" stroke-miterlimit="10"/>
<g clip-path="url(#clip0_216_197)">
<path d="M32.6266 7C32.853 7.09096 32.9436 7.21044 32.9351 7.40492C32.9283 7.56106 32.837 7.65779 32.7135 7.73755C32.1173 8.12245 31.6378 8.62139 31.2682 9.22623C29.7419 11.725 30.9337 15.0068 33.7098 15.9175C35.2626 16.4266 36.7004 16.1765 38.0078 15.1922C38.1928 15.053 38.3668 15.0354 38.5185 15.147C38.6617 15.2522 38.7085 15.4226 38.6417 15.613C38.2413 16.7511 37.587 17.7164 36.6607 18.4896C35.4095 19.5336 33.9619 20.0635 32.3348 19.9942C29.9699 19.8938 28.1606 18.7998 26.9101 16.7932C26.3974 15.9704 26.1195 15.0625 26.0255 14.0979C26.0231 14.0748 26.0333 14.0453 25.999 14.0351C25.999 13.6794 25.999 13.324 25.999 12.9683C26.0333 12.9581 26.0228 12.9286 26.0255 12.9055C26.0533 12.6404 26.0947 12.3781 26.1497 12.1174C26.693 9.53205 28.9455 7.43344 31.5638 7.07094C31.7067 7.05125 31.855 7.0594 31.9917 7.00034C32.2035 7 32.4152 7 32.6266 7ZM37.3705 16.4765C37.3359 16.4629 37.3135 16.4884 37.2881 16.4989C35.8228 17.101 34.3525 17.1078 32.9273 16.4188C31.027 15.5004 29.9876 13.954 29.8447 11.8448C29.7646 10.6606 30.106 9.57312 30.7721 8.58949C30.9123 8.38244 31.0687 8.1883 31.2347 8.00162C31.253 7.98091 31.292 7.96394 31.2767 7.93136C31.2581 7.89131 31.2177 7.9171 31.1865 7.9188C31.1702 7.91982 31.1542 7.9283 31.1376 7.93238C30.1837 8.16929 29.3327 8.60782 28.6238 9.28767C26.9919 10.8537 26.3988 12.7616 26.958 14.9508C27.6933 17.8288 30.4823 19.627 33.4078 19.1654C35.0956 18.8993 36.3946 18.012 37.3305 16.5875C37.3522 16.5549 37.3916 16.5254 37.3705 16.4765Z" fill="#020202"/>
<path d="M36.714 9.66069C36.717 9.8623 36.5606 10.0459 36.3539 10.0442C35.7445 10.0391 35.1941 10.5605 35.189 11.2234C35.1873 11.4389 35.0112 11.5998 34.8045 11.5967C34.5972 11.5937 34.4397 11.4324 34.4292 11.2122C34.4028 10.664 34.0787 10.2357 33.5805 10.0904C33.4869 10.0632 33.3912 10.051 33.2935 10.0473C33.0668 10.0385 32.9039 9.8752 32.9063 9.66238C32.9087 9.45534 33.0702 9.29615 33.2894 9.28563C33.9497 9.25339 34.3987 8.80536 34.4292 8.14825C34.4397 7.92253 34.6033 7.75893 34.8157 7.76199C35.0231 7.76504 35.1805 7.92627 35.1914 8.14621C35.2236 8.80604 35.6715 9.25441 36.3295 9.28529C36.5497 9.29581 36.7109 9.45296 36.714 9.66069ZM34.4272 9.67325C34.5575 9.77813 34.6718 9.88436 34.7662 10.0103C34.7954 10.0493 34.8174 10.0592 34.8514 10.0137C34.9375 9.89794 35.0393 9.79645 35.1534 9.70787C35.1927 9.67732 35.1846 9.65933 35.1503 9.63252C35.0366 9.54359 34.9362 9.44108 34.8456 9.32908C34.8225 9.30023 34.8055 9.29004 34.7777 9.32534C34.6763 9.45466 34.5541 9.56463 34.4272 9.67325Z" fill="#020202"/>
<path d="M37.8611 7.76199C38.0674 7.76403 38.2384 7.93747 38.2378 8.14349C38.2371 8.35461 38.0576 8.52941 37.8468 8.52364C37.6412 8.51821 37.4729 8.34171 37.4766 8.13569C37.4804 7.92966 37.6551 7.75995 37.8611 7.76199Z" fill="#020202"/>
<path d="M38.9995 11.2179C38.9982 11.424 38.8258 11.596 38.6198 11.5964C38.4091 11.5971 38.2336 11.4182 38.2384 11.2071C38.2428 11.0014 38.4186 10.832 38.6242 10.8351C38.8305 10.8381 39.0009 11.0119 38.9995 11.2179Z" fill="#020202"/>
</g>
<defs>
<clipPath id="clip0_216_197">
<rect width="13" height="13" fill="white" transform="translate(26 7)"/>
</clipPath>
</defs>
</svg>
