<svg width="44" height="27" viewBox="0 0 44 27" fill="none" xmlns="http://www.w3.org/2000/svg">
<path d="M37.6188 22.6809H14.3812C10.8569 22.6809 8 18.6715 8 13.7257C8 8.77994 10.8569 4.77059 14.3812 4.77059H37.6188C41.1431 4.77059 44 8.77994 44 13.7257C44 18.6715 41.1431 22.6809 37.6188 22.6809Z" fill="white"/>
<path d="M14.5 1C21.9558 1 28 6.6975 28 13.7257C28 20.754 21.9558 26.4515 14.5 26.4515C7.04416 26.4515 1 20.754 1 13.7257C1 6.6975 7.04416 1 14.5 1Z" fill="white" stroke="#58595B" stroke-miterlimit="10"/>
<path d="M17.3075 8.91416C17.2295 9.03524 17.174 8.91947 17.1334 8.88549C15.2591 7.30084 12.3638 7.31677 10.4862 9.00656C10.436 9.03378 10.3831 9.05551 10.3282 9.07135C10.6667 8.53075 10.2886 8.26416 9.99922 7.96252C9.65639 7.6046 9.3157 7.24454 8.9686 6.8898C8.69412 6.60941 8.41004 6.58286 8.17081 6.80059C7.93158 7.01832 7.94653 7.33163 8.19751 7.59822C8.63218 8.06342 9.07754 8.51799 9.51435 8.97894C9.7162 9.19136 9.95009 9.22216 10.3175 9.07241C8.28829 11.5397 8.25625 13.9581 10.294 16.4582C9.74076 16.2522 9.50901 16.5878 9.24414 16.8703C8.89811 17.2399 8.54033 17.5989 8.19537 17.9706C7.94653 18.2394 7.94333 18.5622 8.17295 18.7683C8.40257 18.9743 8.69093 18.9605 8.94724 18.6982C9.3926 18.2436 9.82834 17.7795 10.2684 17.3175C10.4734 17.105 10.5514 16.8724 10.3655 16.6069C10.5076 16.5432 10.5791 16.642 10.6582 16.7046C12.6874 18.2436 15.0743 18.2404 17.1089 16.7046C17.1623 16.6643 17.2103 16.5443 17.3075 16.6547V16.6621C17.2189 16.5623 17.299 16.5443 17.3748 16.5251V16.5326C17.3662 16.4763 17.394 16.4561 17.4463 16.4603L17.4389 16.4667C17.4581 16.3892 17.4859 16.3286 17.5777 16.3998L17.5692 16.4051C17.4848 16.2777 17.6236 16.2426 17.676 16.1863C19.4413 14.1301 19.4413 11.4419 17.676 9.38148C17.6268 9.32413 17.488 9.28908 17.5692 9.16269L17.5777 9.168C17.4859 9.23916 17.4592 9.17756 17.4389 9.10109H17.4463C17.3961 9.10109 17.3662 9.08516 17.3748 9.02887V9.03736C17.299 9.01718 17.2178 9.00019 17.3075 8.89929V8.91416ZM17.9205 12.7961C17.9194 13.3256 17.8129 13.8495 17.607 14.3378C17.4012 14.8261 17.1001 15.2689 16.7211 15.6408C16.3422 16.0127 15.893 16.3063 15.3993 16.5045C14.9057 16.7028 14.3774 16.8019 13.8451 16.796C12.7763 16.7862 11.7548 16.3562 11.0037 15.6001C10.2525 14.8439 9.83267 13.8229 9.83582 12.76C9.84329 10.5487 11.6792 8.76334 13.9337 8.77609C14.9967 8.78895 16.0116 9.21837 16.7581 9.97106C17.5046 10.7238 17.9223 11.7389 17.9205 12.7961Z" fill="#0E0D0D"/>
<path d="M13.0008 19.3856C13.0008 19.661 13.0008 19.9364 13.0008 20.2118C13.0008 20.563 13.2012 20.7956 13.5018 20.7956C13.8024 20.7956 13.9929 20.5728 13.9959 20.2118C14.0009 19.6523 14.0019 19.0918 13.9959 18.5313C13.9959 18.1625 13.7954 17.9592 13.4868 17.9679C13.1912 17.9767 13.0088 18.1868 13.0038 18.5313C12.9977 18.8135 13.0008 19.0937 13.0008 19.3856Z" fill="#0E0D0D"/>
<path d="M13.9959 6.19595C13.9959 5.90436 14.0029 5.60596 13.9959 5.31243C13.9858 4.97709 13.7742 4.75937 13.4873 4.77103C13.2005 4.7827 13.0079 5.00334 13.0049 5.31243C12.9989 5.90145 12.9979 6.49144 13.0049 7.08046C13.0049 7.39538 13.2135 7.59755 13.5064 7.59852C13.7993 7.59949 13.9878 7.40412 13.9989 7.07948C14.0029 6.78497 13.9949 6.49046 13.9959 6.19595Z" fill="#0E0D0D"/>
<path d="M17.0146 16.3828C16.9448 16.775 17.1323 17.0555 17.4309 17.3218C17.9081 17.7485 18.349 18.2085 18.8118 18.6471C19.1532 18.9704 19.5152 18.9941 19.8023 18.7279C20.0893 18.4616 20.0609 18.1526 19.7363 17.8388C19.2708 17.3847 18.7886 16.945 18.3399 16.4778C18.058 16.1854 17.7503 16.0214 17.3197 16.1034L17.3301 16.0975C17.3094 16.1878 17.2654 16.2365 17.162 16.1724L17.1711 16.1652C17.1711 16.1938 17.2202 16.2128 17.1788 16.252C17.1374 16.2912 17.1142 16.252 17.0844 16.2461V16.2377C17.1542 16.3328 17.1116 16.3768 17.003 16.3911L17.0146 16.3828Z" fill="#0E0D0D"/>
<path d="M17.3087 9.46303C17.7409 9.54401 18.0521 9.38205 18.3347 9.0879C18.7865 8.61988 19.2734 8.17926 19.7408 7.72434C20.0637 7.40995 20.0833 7.08961 19.8085 6.83476C19.5338 6.57991 19.1575 6.58944 18.8112 6.91455C18.2813 7.41472 17.7696 7.93275 17.2319 8.42458C16.9858 8.64966 16.9975 8.91046 17.0014 9.18317V9.17364C17.1095 9.18912 17.1524 9.23319 17.0834 9.32846V9.31893C17.1147 9.31893 17.1355 9.27487 17.1785 9.31893C17.2214 9.36299 17.1785 9.37728 17.1707 9.40467H17.1615C17.2657 9.33917 17.31 9.38919 17.3308 9.4797L17.3087 9.46303Z" fill="#0E0D0D"/>
<path d="M20.5262 12.3148C20.1931 12.3148 19.859 12.3148 19.5259 12.3148C19.4582 12.3126 19.3907 12.3231 19.3274 12.3457C19.2641 12.3682 19.2062 12.4025 19.1573 12.4463C19.1083 12.4901 19.0691 12.5427 19.0421 12.6009C19.0151 12.6591 19.0008 12.7218 19 12.7852C19.0008 12.8488 19.0152 12.9115 19.0424 12.9697C19.0697 13.0279 19.1092 13.0804 19.1586 13.1239C19.208 13.1675 19.2662 13.2013 19.3299 13.2233C19.3935 13.2452 19.4613 13.255 19.529 13.2518C20.1756 13.2576 20.8211 13.2518 21.4677 13.2518C21.7874 13.2518 21.9926 13.0663 21.9998 12.7959C22.007 12.5254 21.7936 12.3186 21.4636 12.3128C21.1511 12.3099 20.8387 12.3138 20.5262 12.3148Z" fill="#0E0D0D"/>
<path d="M6.99253 12.3148C6.55883 12.3148 6.12374 12.309 5.69142 12.3148C5.59952 12.3116 5.5077 12.3218 5.42185 12.3449C5.336 12.3679 5.25804 12.4031 5.19298 12.4484C5.12792 12.4936 5.0772 12.5478 5.0441 12.6075C5.01101 12.6672 4.99626 12.731 5.00081 12.7949C5.00039 12.8558 5.01765 12.9162 5.05153 12.9723C5.08542 13.0285 5.13524 13.0794 5.19803 13.1219C5.26081 13.1644 5.33527 13.1976 5.41696 13.2196C5.49865 13.2417 5.58589 13.252 5.67346 13.2501C6.55469 13.2559 7.43591 13.2559 8.31713 13.2501C8.4089 13.2541 8.50084 13.2444 8.58675 13.2216C8.67265 13.1988 8.75052 13.1635 8.81507 13.118C8.87963 13.0724 8.92938 13.0178 8.96095 12.9578C8.99252 12.8977 9.00518 12.8337 8.99808 12.7699C8.99964 12.7091 8.98336 12.6487 8.95022 12.5924C8.91709 12.5362 8.8678 12.4852 8.80536 12.4426C8.74293 12.4 8.66866 12.3667 8.58709 12.3447C8.50552 12.3227 8.41836 12.3125 8.33094 12.3148C7.89448 12.308 7.44005 12.3148 6.99253 12.3148Z" fill="#0E0D0D"/>
</svg>
