<svg xmlns="http://www.w3.org/2000/svg" width="265" height="353" viewBox="0 0 265 353"><rect width="100%" height="100%" fill="#DDDDDD"/><path fill="#999999" d="M63.78 185.125h6.49q.7 0 1.11.4.41.39.41 1.04v2.59H54.43v-1.44q0-.43.19-.91.18-.49.58-.87l7.69-7.7q.96-.98 1.72-1.87.76-.9 1.27-1.77.51-.88.78-1.78t.27-1.9q0-.91-.26-1.6-.27-.69-.75-1.16t-1.15-.71q-.68-.24-1.52-.24-.77 0-1.42.22-.66.22-1.17.62-.5.39-.85.91-.35.53-.53 1.16-.3.8-.77 1.07-.47.26-1.36.12l-2.28-.4q.26-1.82 1.02-3.2.75-1.37 1.88-2.29 1.13-.92 2.59-1.38 1.46-.47 3.14-.47 1.75 0 3.2.52 1.45.52 2.49 1.46 1.03.95 1.61 2.28.57 1.33.57 2.95 0 1.4-.41 2.59t-1.1 2.28q-.69 1.08-1.62 2.1-.92 1.01-1.94 2.06l-5.71 5.83q.83-.24 1.64-.37.81-.14 1.55-.14Zm26.27-21.28-7.51 9.19-.88 1.09q.74-.37 1.59-.57.85-.2 1.83-.2 1.43 0 2.79.47 1.35.47 2.39 1.43 1.03.95 1.66 2.37.63 1.41.63 3.3 0 1.77-.65 3.32-.65 1.55-1.82 2.7-1.17 1.16-2.82 1.82-1.66.67-3.65.67-2.03 0-3.64-.65-1.61-.65-2.75-1.81-1.14-1.16-1.74-2.8-.61-1.64-.61-3.63 0-1.79.73-3.67t2.25-3.91l6.04-8.1q.31-.42.92-.72.6-.3 1.39-.3h3.85Zm-6.53 22.05q1.03 0 1.9-.35.86-.35 1.49-.98.62-.63.97-1.47.35-.85.35-1.85 0-1.09-.34-1.95-.33-.87-.94-1.47-.61-.61-1.47-.92-.86-.32-1.89-.32-1.03 0-1.87.35-.84.35-1.44.98-.59.62-.93 1.47-.33.84-.33 1.82 0 1.05.29 1.92.29.87.86 1.48.57.61 1.41.95.84.34 1.94.34Zm18.18-18.13-.89 5.27q.84-.17 1.61-.25.77-.08 1.49-.08 1.99 0 3.51.59 1.53.6 2.56 1.65 1.03 1.05 1.56 2.46.52 1.41.52 3.03 0 2.02-.71 3.68-.71 1.66-1.97 2.84t-2.98 1.83q-1.72.65-3.75.65-1.19 0-2.26-.24-1.07-.25-2-.66-.94-.41-1.74-.95-.79-.53-1.42-1.13l1.33-1.83q.42-.6 1.1-.6.44 0 .89.28.46.28 1.04.61.59.34 1.39.62.79.28 1.91.28 1.19 0 2.1-.39.91-.38 1.52-1.07.6-.7.91-1.65.3-.95.3-2.07 0-2.07-1.2-3.23-1.2-1.17-3.54-1.17-1.8 0-3.69.67l-2.7-.77 2.1-12.29h12.5v1.84q0 .93-.58 1.51-.58.57-1.96.57h-6.95Zm39.22 15.6-2.29 2.25-5.94-5.93-5.98 5.97-2.29-2.26 5.98-6-5.7-5.71 2.27-2.27 5.71 5.7 5.67-5.67 2.31 2.28-5.69 5.69 5.95 5.95Zm14.56-12.06-2.28-.4q.27-1.82 1.02-3.2.75-1.37 1.88-2.29 1.13-.92 2.59-1.38 1.46-.47 3.14-.47 1.75 0 3.16.5 1.41.5 2.41 1.39.99.88 1.53 2.07.53 1.19.53 2.57 0 1.21-.27 2.13-.27.92-.78 1.6t-1.26 1.15q-.75.48-1.7.79 2.28.72 3.4 2.19t1.12 3.69q0 1.89-.7 3.34-.7 1.46-1.89 2.45-1.19.98-2.76 1.49-1.56.51-3.31.51-1.91 0-3.33-.44-1.42-.44-2.47-1.29-1.05-.86-1.78-2.1-.74-1.25-1.26-2.87l1.91-.79q.75-.32 1.41-.17.65.15.95.71.31.61.69 1.21.38.59.9 1.06.53.46 1.24.75.7.29 1.68.29 1.11 0 1.93-.36.82-.36 1.37-.94.55-.57.83-1.28.27-.71.27-1.43 0-.91-.2-1.65-.19-.75-.8-1.27-.61-.53-1.76-.82-1.15-.3-3.07-.3v-3.08q1.59-.02 2.64-.3 1.05-.28 1.67-.78.62-.5.87-1.2.24-.7.24-1.54 0-1.78-.99-2.71-1-.93-2.66-.93-.77 0-1.42.22-.65.22-1.16.62-.52.39-.87.91-.35.53-.53 1.16-.29.8-.77 1.07-.49.26-1.36.12Zm24.13-3.54-.89 5.27q.84-.17 1.61-.25.77-.08 1.49-.08 1.99 0 3.51.59 1.53.6 2.56 1.65 1.03 1.05 1.56 2.46.52 1.41.52 3.03 0 2.02-.71 3.68-.71 1.66-1.97 2.84t-2.98 1.83q-1.72.65-3.75.65-1.19 0-2.26-.24-1.07-.25-2-.66-.94-.41-1.74-.95-.79-.53-1.42-1.13l1.33-1.83q.42-.6 1.1-.6.44 0 .89.28.46.28 1.04.61.59.34 1.39.62.79.28 1.91.28 1.19 0 2.1-.39.91-.38 1.52-1.07.6-.7.91-1.65.3-.95.3-2.07 0-2.07-1.2-3.23-1.2-1.17-3.54-1.17-1.8 0-3.69.67l-2.7-.77 2.1-12.29h12.5v1.84q0 .93-.58 1.51-.58.57-1.96.57h-6.95Zm16.47 3.54-2.28-.4q.27-1.82 1.02-3.2.75-1.37 1.88-2.29 1.13-.92 2.59-1.38 1.46-.47 3.14-.47 1.75 0 3.16.5 1.41.5 2.41 1.39.99.88 1.53 2.07.53 1.19.53 2.57 0 1.21-.27 2.13-.27.92-.78 1.6t-1.26 1.15q-.75.48-1.7.79 2.28.72 3.4 2.19t1.12 3.69q0 1.89-.7 3.34-.7 1.46-1.89 2.45-1.19.98-2.76 1.49-1.56.51-3.31.51-1.91 0-3.33-.44-1.42-.44-2.47-1.29-1.05-.86-1.78-2.1-.74-1.25-1.26-2.87l1.91-.79q.75-.32 1.41-.17.65.15.95.71.31.61.69 1.21.38.59.9 1.06.53.46 1.24.75t1.68.29q1.11 0 1.93-.36.82-.36 1.37-.94.56-.57.83-1.28.27-.71.27-1.43 0-.91-.2-1.65-.19-.75-.8-1.27-.61-.53-1.76-.82-1.14-.3-3.07-.3v-3.08q1.59-.02 2.64-.3 1.05-.28 1.67-.78.62-.5.87-1.2t.25-1.54q0-1.78-1-2.71-1-.93-2.66-.93-.77 0-1.42.22-.65.22-1.16.62-.52.39-.87.91-.35.53-.53 1.16-.29.8-.77 1.07-.48.26-1.36.12Z"/></svg>