<?xml version="1.0" standalone="no"?>
<!DOCTYPE svg PUBLIC "-//W3C//DTD SVG 20010904//EN"
 "http://www.w3.org/TR/2001/REC-SVG-20010904/DTD/svg10.dtd">
<svg version="1.0" xmlns="http://www.w3.org/2000/svg"
 width="512.000000pt" height="512.000000pt" viewBox="0 0 512.000000 512.000000"
 preserveAspectRatio="xMidYMid meet">
<metadata>
Created by potrace 1.14, written by Peter Selinger 2001-2017
</metadata>
<g transform="translate(0.000000,512.000000) scale(0.100000,-0.100000)"
fill="#000000" stroke="none">
<path d="M305 5096 c-138 -44 -226 -125 -276 -253 l-22 -58 -2 -2205 c0 -1213
3 -2225 7 -2249 19 -104 91 -209 187 -270 101 -65 -60 -61 2392 -59 l2224 3
58 29 c106 53 182 136 223 246 16 42 17 211 18 2255 1 1216 -2 2228 -6 2250
-25 121 -128 245 -245 295 l-58 25 -2230 2 c-1794 1 -2238 -1 -2270 -11z"/>
</g>
</svg>
